<svg width="129" height="30" viewBox="0 0 129 30" fill="none" xmlns="http://www.w3.org/2000/svg">
<path d="M125.634 5.24038H125.182V4.98465L126.35 4.98678V5.24251H125.898L125.896 6.62773H125.634V5.24038ZM126.561 4.98678H126.972L127.354 6.15249H127.36L127.742 4.98678H128.155L128.153 6.6256H127.893L127.895 5.30857H127.891L127.441 6.6256H127.258L126.817 5.30644H126.813L126.811 6.62346H126.561V4.98678ZM117.585 4.92498C116.882 4.92498 116.353 5.38742 116.262 6.05233C115.373 5.13809 114.077 4.63515 112.59 4.63515C108.928 4.63088 106.056 7.50787 106.051 11.1862C106.051 11.2757 106.054 11.363 106.058 11.4504C107.435 11.9917 108.411 13.3343 108.408 14.9007C108.408 15.3226 108.334 15.7275 108.202 16.1047C109.342 17.1085 110.859 17.7052 112.573 17.7073C114.045 17.7095 115.439 16.9891 116.238 16.2305C116.298 16.955 116.828 17.4495 117.568 17.4516C118.405 17.4516 118.928 16.9316 118.928 16.092L118.938 6.26757C118.942 5.45136 118.41 4.92498 117.585 4.92498ZM112.558 14.8282C110.552 14.8261 108.92 13.1915 108.924 11.1819C108.926 9.17439 110.561 7.54197 112.566 7.5441C114.572 7.54623 116.204 9.18079 116.202 11.1904C116.2 13.1979 114.565 14.8303 112.558 14.8282ZM93.6804 4.8994C92.9771 4.8994 92.4486 5.36185 92.357 6.02676C91.4683 5.11251 90.1726 4.60957 88.6851 4.60957C85.0239 4.60531 82.1533 7.4823 82.149 11.1606C82.1447 14.8751 84.9493 17.6775 88.6723 17.6818C90.147 17.6839 91.5386 16.9636 92.3378 16.2049C92.3975 16.9295 92.9281 17.4239 93.6676 17.426C94.5051 17.426 95.0273 16.906 95.0273 16.0664L95.0379 6.242C95.0379 5.42579 94.5051 4.8994 93.6804 4.8994ZM88.5615 14.8005C86.5561 14.7984 84.9237 13.1638 84.9258 11.1542C84.928 9.14669 86.5625 7.51426 88.5679 7.5164C90.5754 7.51853 92.2057 9.15308 92.2035 11.1627C92.2035 13.1702 90.569 14.8026 88.5615 14.8005ZM47.5378 0C46.7109 0 46.1781 0.524251 46.1781 1.3362L46.1739 5.99053C45.3214 5.0635 44.0407 4.5563 42.5382 4.55416C39.0581 4.55203 36.0043 7.6123 36 11.1073C35.9957 14.5767 39.0453 17.6242 42.5233 17.6285C44.0662 17.6306 45.5111 16.8357 46.2762 16.0515C46.4254 16.9039 46.9389 17.3706 47.7381 17.3706C48.3988 17.3706 48.8783 16.8634 48.8804 16.1644L48.8974 1.34046C48.8974 0.539169 48.3519 0.0021311 47.5378 0ZM42.4999 14.7494C40.4945 14.7472 38.8621 13.1127 38.8642 11.103C38.8663 9.09554 40.5009 7.46312 42.5063 7.46525C44.5116 7.46738 46.144 9.10194 46.1419 11.1116C46.1398 13.1191 44.5052 14.7515 42.4999 14.7494ZM67.3059 4.86957C66.4364 4.86957 65.9889 5.27448 65.8759 6.18019C65.0661 5.36185 63.6383 4.57974 62.1124 4.57974C58.6344 4.57548 55.5784 7.62721 55.5763 11.1073C55.572 14.5895 58.6195 17.6455 62.0996 17.6498C63.6724 17.6519 64.9148 17.1724 65.7118 16.2603C65.6351 18.8944 64.3628 20.173 61.8332 20.1709C61.0085 20.1709 60.4736 20.7037 60.4714 21.5284C60.4714 22.3936 60.9978 22.888 61.9163 22.8902C66.7369 22.8966 68.4503 19.3888 68.4524 16.3839L68.4631 6.05446C68.4673 5.36825 67.9793 4.86957 67.3059 4.86957ZM62.0442 14.7707C60.0367 14.7685 58.4064 13.134 58.4085 11.1244C58.4107 9.11685 60.0452 7.48443 62.0506 7.48656C64.056 7.48869 65.6884 9.12325 65.6862 11.1329C65.6841 13.1425 64.0496 14.7728 62.0442 14.7707ZM122.659 4.8376C121.896 4.8376 121.321 5.41087 121.321 6.1738L121.276 16.1388C121.276 16.9401 121.824 17.4985 122.612 17.5006C123.45 17.5006 123.972 16.9806 123.974 16.1431L124.019 6.17806C124.017 5.37677 123.471 4.8376 122.659 4.8376ZM52.3882 4.70334C51.6252 4.70334 51.0498 5.27661 51.0498 6.03954L51.0392 16.0152C51.0392 16.8165 51.5869 17.377 52.3754 17.377C53.2129 17.377 53.735 16.857 53.735 16.0174L53.7457 6.04167C53.7457 5.24251 53.2001 4.70334 52.3882 4.70334ZM72.1989 4.75875C71.436 4.75875 70.8606 5.33202 70.8606 6.09495L70.8499 16.0365C70.8499 16.8378 71.3976 17.3983 72.1861 17.3983C73.0236 17.3983 73.5457 16.8783 73.5457 16.0387L73.5564 6.09708C73.5564 5.29792 73.0108 4.75875 72.1989 4.75875ZM80.54 14.7749C79.6556 14.7003 79.1079 14.451 79.1101 13.4366L79.1164 7.69115H79.8176C80.5933 7.69115 81.1559 7.13067 81.1559 6.35495C81.1559 5.52808 80.6338 4.9953 79.8197 4.99317H79.1186L79.1228 1.398C79.1228 0.558349 78.6029 0.0383599 77.7653 0.0362287C76.979 0.0362287 76.427 0.594577 76.427 1.39374L76.4227 5.02301C75.7706 5.12104 75.37 5.62398 75.37 6.34855C75.37 7.03051 75.7877 7.55476 76.4206 7.6741L76.4142 13.4536C76.4121 15.962 77.7589 17.4026 80.1138 17.4068C81.0877 17.409 81.6716 16.9401 81.6716 16.158C81.6716 15.3482 81.2603 14.8453 80.54 14.7749ZM98.9613 0.0575396C98.1749 0.0575396 97.6229 0.607364 97.6229 1.39374L97.6059 16.0642C97.6059 16.8655 98.1536 17.426 98.9421 17.426C99.7796 17.426 100.302 16.906 100.304 16.0664L100.321 1.39587C100.319 0.571135 99.7988 0.0596707 98.9613 0.0575396ZM106.819 13.4728C106.774 13.4046 106.725 13.3386 106.672 13.2768C106.548 13.1276 106.407 12.9955 106.254 12.8761C106.201 12.8356 106.145 12.7951 106.088 12.7589C105.804 12.5735 105.482 12.4435 105.135 12.3838C104.997 12.3604 104.854 12.3476 104.709 12.3476C104.27 12.3476 103.856 12.4584 103.496 12.6545C103.424 12.6928 103.353 12.7355 103.285 12.7823C102.608 13.2405 102.162 14.0141 102.16 14.8943C102.16 15.7744 102.603 16.5501 103.281 17.0083C103.349 17.0552 103.42 17.0978 103.49 17.1362C103.85 17.3323 104.263 17.4452 104.702 17.4452C105.318 17.4452 105.883 17.2278 106.322 16.8655C106.448 16.7611 106.563 16.646 106.667 16.5203C106.721 16.4585 106.77 16.3924 106.814 16.3242C106.906 16.1878 106.985 16.0451 107.049 15.8916C107.177 15.5869 107.249 15.2523 107.249 14.9007C107.249 14.549 107.179 14.2144 107.051 13.9076C106.989 13.752 106.91 13.6071 106.819 13.4728Z" fill="white"/>
<path d="M90.9826 10.5895C91.0252 10.7706 91.0486 10.9581 91.0486 11.1521C91.0486 11.2586 91.0423 11.3652 91.0295 11.4675C91.0167 11.5719 90.9975 11.6721 90.9719 11.7722C90.9208 11.9704 90.8462 12.1601 90.7503 12.3348C90.3305 13.1084 89.51 13.6348 88.5681 13.6348C87.1978 13.6348 86.0874 12.5224 86.0874 11.1521C86.0874 10.9816 86.1045 10.8132 86.1386 10.6513C86.3027 9.84357 86.861 9.17654 87.6048 8.86327C87.901 8.73753 88.2271 8.66721 88.5702 8.66721C88.9133 8.66721 89.2393 8.73753 89.5356 8.86327C90.0918 9.09769 90.5393 9.53243 90.8014 10.0716C90.8782 10.2357 90.94 10.4083 90.9826 10.5895ZM42.5043 8.66721C41.134 8.66721 40.0237 9.77964 40.0237 11.1499C40.0237 12.5202 41.134 13.6327 42.5043 13.6327C43.8746 13.6327 44.987 12.5202 44.987 11.1499C44.987 9.77964 43.8746 8.66721 42.5043 8.66721ZM113.528 8.86327C113.453 8.8313 113.378 8.8036 113.299 8.78015C113.182 8.74393 113.063 8.71622 112.939 8.69704C112.816 8.67786 112.69 8.66721 112.562 8.66721C112.306 8.66721 112.057 8.70557 111.825 8.77802C111.748 8.80147 111.671 8.8313 111.597 8.86114C110.855 9.17441 110.297 9.84144 110.131 10.6491C110.099 10.8111 110.079 10.9773 110.079 11.1499C110.079 11.8362 110.356 12.4563 110.806 12.906C110.919 13.0189 111.043 13.1212 111.173 13.2086C111.371 13.3428 111.588 13.4494 111.823 13.5219C112.057 13.5943 112.304 13.6327 112.56 13.6327C112.688 13.6327 112.816 13.6241 112.937 13.605C113.061 13.5858 113.18 13.5581 113.297 13.5219C113.53 13.4494 113.749 13.3428 113.947 13.2086C114.079 13.1191 114.203 13.0189 114.314 12.906C114.764 12.4563 115.041 11.8362 115.041 11.1499C115.041 10.9795 115.024 10.8111 114.989 10.6491C114.827 9.84357 114.271 9.17654 113.528 8.86327ZM63.0119 8.86327C62.7157 8.73753 62.3896 8.66721 62.0465 8.66721C61.7034 8.66721 61.3773 8.73753 61.0811 8.86327C60.3395 9.17654 59.7811 9.84357 59.6149 10.6513C59.5829 10.8132 59.5638 10.9795 59.5638 11.1521C59.5638 12.5245 60.6741 13.6348 62.0444 13.6348C63.4147 13.6348 64.5271 12.5224 64.5271 11.1521C64.5271 10.9816 64.51 10.8132 64.4759 10.6513C64.314 9.84357 63.7556 9.17654 63.0119 8.86327Z" fill="#80B528"/>
<path d="M100.677 26.47C100.561 26.47 100.489 26.4139 100.458 26.3016L100.385 25.7417C100.188 25.9815 99.9621 26.1741 99.7072 26.3198C99.4553 26.4624 99.1655 26.5337 98.8378 26.5337C98.5738 26.5337 98.3341 26.4837 98.1187 26.3835C97.9032 26.2803 97.7196 26.1301 97.5679 25.9329C97.4162 25.7357 97.2993 25.4899 97.2174 25.1955C97.1355 24.9012 97.0945 24.5628 97.0945 24.1805C97.0945 23.8406 97.14 23.525 97.2311 23.2337C97.3221 22.9394 97.4526 22.6845 97.6225 22.469C97.7955 22.2536 98.0049 22.0852 98.2507 21.9638C98.4964 21.8394 98.7756 21.7772 99.0882 21.7772C99.3704 21.7772 99.6116 21.8257 99.8119 21.9228C100.012 22.0169 100.191 22.1504 100.349 22.3234V19.7653H101.159V26.47H100.677ZM99.1064 25.8783C99.3704 25.8783 99.601 25.8176 99.7982 25.6962C99.9985 25.5748 100.182 25.4034 100.349 25.1819V22.9515C100.2 22.7512 100.036 22.6117 99.8574 22.5328C99.6814 22.4508 99.4857 22.4099 99.2702 22.4099C98.8393 22.4099 98.5086 22.5631 98.278 22.8696C98.0473 23.1761 97.932 23.613 97.932 24.1805C97.932 24.4809 97.9578 24.7388 98.0094 24.9543C98.061 25.1667 98.1369 25.3427 98.237 25.4823C98.3371 25.6188 98.46 25.719 98.6057 25.7827C98.7513 25.8464 98.9182 25.8783 99.1064 25.8783ZM104.433 21.7863C104.709 21.7863 104.964 21.8333 105.197 21.9274C105.431 22.0184 105.633 22.1519 105.803 22.3279C105.973 22.5009 106.105 22.7164 106.199 22.9743C106.296 23.2292 106.344 23.5205 106.344 23.8482C106.344 23.9757 106.331 24.0606 106.303 24.1031C106.276 24.1456 106.225 24.1668 106.149 24.1668H103.081C103.087 24.4581 103.126 24.7115 103.199 24.927C103.272 25.1424 103.372 25.323 103.5 25.4686C103.627 25.6112 103.779 25.719 103.955 25.7918C104.131 25.8616 104.328 25.8965 104.547 25.8965C104.75 25.8965 104.924 25.8737 105.07 25.8282C105.219 25.7797 105.346 25.7281 105.452 25.6735C105.559 25.6188 105.647 25.5688 105.716 25.5232C105.789 25.4747 105.851 25.4504 105.903 25.4504C105.97 25.4504 106.021 25.4762 106.058 25.5278L106.285 25.8237C106.185 25.945 106.065 26.0512 105.926 26.1423C105.786 26.2303 105.636 26.3031 105.475 26.3608C105.317 26.4184 105.153 26.4609 104.983 26.4882C104.814 26.5186 104.645 26.5337 104.478 26.5337C104.16 26.5337 103.865 26.4806 103.595 26.3744C103.328 26.2652 103.096 26.1074 102.899 25.901C102.705 25.6917 102.553 25.4337 102.444 25.1272C102.334 24.8208 102.28 24.4688 102.28 24.0712C102.28 23.7496 102.328 23.4492 102.425 23.17C102.526 22.8908 102.668 22.6496 102.853 22.4463C103.038 22.2399 103.264 22.0791 103.531 21.9638C103.799 21.8455 104.099 21.7863 104.433 21.7863ZM104.451 22.3826C104.059 22.3826 103.751 22.4964 103.527 22.7239C103.302 22.9485 103.163 23.261 103.108 23.6616H105.616C105.616 23.4735 105.59 23.302 105.539 23.1472C105.487 22.9895 105.411 22.8544 105.311 22.7421C105.211 22.6268 105.088 22.5388 104.943 22.4781C104.8 22.4144 104.636 22.3826 104.451 22.3826ZM107.473 28.0312V21.8591H107.955C108.07 21.8591 108.143 21.9152 108.173 22.0275L108.242 22.5737C108.439 22.334 108.664 22.1413 108.915 21.9957C109.17 21.85 109.463 21.7772 109.794 21.7772C110.058 21.7772 110.298 21.8288 110.513 21.9319C110.728 22.0321 110.912 22.1823 111.064 22.3826C111.216 22.5798 111.332 22.8256 111.414 23.1199C111.496 23.4143 111.537 23.7526 111.537 24.135C111.537 24.4748 111.492 24.7919 111.401 25.0863C111.31 25.3776 111.179 25.631 111.009 25.8464C110.839 26.0588 110.63 26.2272 110.381 26.3517C110.135 26.473 109.858 26.5337 109.548 26.5337C109.263 26.5337 109.019 26.4867 108.815 26.3926C108.615 26.2986 108.437 26.165 108.283 25.9921V28.0312H107.473ZM109.525 22.4326C109.261 22.4326 109.029 22.4933 108.829 22.6147C108.632 22.7361 108.45 22.9075 108.283 23.129V25.3594C108.431 25.5597 108.594 25.7008 108.77 25.7827C108.949 25.8646 109.148 25.9056 109.366 25.9056C109.794 25.9056 110.123 25.7523 110.354 25.4459C110.584 25.1394 110.7 24.7024 110.7 24.135C110.7 23.8346 110.672 23.5766 110.618 23.3612C110.566 23.1457 110.49 22.9697 110.39 22.8332C110.29 22.6936 110.167 22.5919 110.021 22.5282C109.876 22.4645 109.71 22.4326 109.525 22.4326ZM113.488 19.7653V26.47H112.677V19.7653H113.488ZM116.873 21.7863C117.21 21.7863 117.513 21.8424 117.783 21.9547C118.056 22.067 118.287 22.2263 118.475 22.4326C118.666 22.639 118.812 22.8893 118.912 23.1837C119.015 23.475 119.067 23.8012 119.067 24.1623C119.067 24.5264 119.015 24.8541 118.912 25.1455C118.812 25.4368 118.666 25.6856 118.475 25.8919C118.287 26.0983 118.056 26.2576 117.783 26.3699C117.513 26.4791 117.21 26.5337 116.873 26.5337C116.536 26.5337 116.231 26.4791 115.958 26.3699C115.688 26.2576 115.457 26.0983 115.266 25.8919C115.075 25.6856 114.928 25.4368 114.825 25.1455C114.721 24.8541 114.67 24.5264 114.67 24.1623C114.67 23.8012 114.721 23.475 114.825 23.1837C114.928 22.8893 115.075 22.639 115.266 22.4326C115.457 22.2263 115.688 22.067 115.958 21.9547C116.231 21.8424 116.536 21.7863 116.873 21.7863ZM116.873 25.901C117.328 25.901 117.668 25.7493 117.892 25.4459C118.117 25.1394 118.229 24.713 118.229 24.1668C118.229 23.6176 118.117 23.1897 117.892 22.8832C117.668 22.5768 117.328 22.4235 116.873 22.4235C116.642 22.4235 116.442 22.463 116.272 22.5419C116.102 22.6208 115.959 22.7346 115.844 22.8832C115.732 23.0319 115.647 23.2155 115.589 23.434C115.535 23.6495 115.507 23.8937 115.507 24.1668C115.507 24.4399 115.535 24.6842 115.589 24.8997C115.647 25.1151 115.732 25.2972 115.844 25.4459C115.959 25.5915 116.102 25.7038 116.272 25.7827C116.442 25.8616 116.642 25.901 116.873 25.901ZM121.392 27.831C121.365 27.8917 121.33 27.9402 121.288 27.9766C121.248 28.013 121.186 28.0312 121.101 28.0312H120.5L121.342 26.2014L119.44 21.8591H120.141C120.211 21.8591 120.265 21.8773 120.305 21.9137C120.344 21.9471 120.373 21.985 120.391 22.0275L121.625 24.9315C121.652 24.9983 121.675 25.065 121.693 25.1318C121.714 25.1986 121.732 25.2668 121.747 25.3366C121.769 25.2668 121.79 25.1986 121.811 25.1318C121.832 25.065 121.857 24.9968 121.884 24.927L123.081 22.0275C123.099 21.979 123.13 21.9395 123.172 21.9092C123.218 21.8758 123.266 21.8591 123.318 21.8591H123.964L121.392 27.831Z" fill="white"/>
<path fill-rule="evenodd" clip-rule="evenodd" d="M27.7241 15C27.7241 22.0273 22.0273 27.7241 15 27.7241C7.97265 27.7241 2.27586 22.0273 2.27586 15C2.27586 7.97265 7.97265 2.27586 15 2.27586C22.0273 2.27586 27.7241 7.97265 27.7241 15ZM30 15C30 23.2843 23.2843 30 15 30C6.71573 30 0 23.2843 0 15C0 6.71573 6.71573 0 15 0C23.2843 0 30 6.71573 30 15ZM23.306 6.7378C23.5866 10.0294 22.6634 12.9192 20.5538 15.2959C19.9004 16.0471 19.1211 16.7237 18.2709 17.343C18.6475 18.574 18.486 19.8719 17.7941 21.0509C17.1209 22.2074 15.9855 23.1959 14.6155 23.828C14.4766 23.9064 14.3222 23.9272 14.1883 23.9272C13.9206 23.9272 13.6726 23.8308 13.4762 23.6388L13.47 23.6327C13.1971 23.3417 13.1208 22.8821 13.3219 22.5131C13.9593 21.3403 13.8137 20.0535 13.0422 19.2993L13.0225 19.2801L9.54975 15.8855C8.77622 15.1294 7.45366 14.9862 6.24985 15.6114C5.88642 15.8007 5.41801 15.7594 5.11314 15.464C4.7903 15.1705 4.71941 14.7302 4.88992 14.3493L4.89219 14.3442C5.53889 13.0009 6.53275 11.8869 7.73888 11.2275C8.9437 10.571 10.269 10.415 11.5082 10.7665C13.7754 7.80567 17.381 5.45456 22.3921 5.84178L22.3961 5.84209C22.8823 5.88962 23.2562 6.25089 23.3057 6.73443L23.306 6.7378ZM11.5837 10.9979C10.3604 10.6122 9.03843 10.7472 7.83483 11.4029C6.67069 12.0394 5.70387 13.1195 5.07247 14.431C4.95788 14.687 4.9791 14.9696 5.13612 15.1906C4.97914 14.9696 4.95794 14.687 5.07251 14.431C5.70391 13.1195 6.67073 12.0395 7.83487 11.403C9.03847 10.7472 10.3605 10.6122 11.5838 10.9979C13.8134 8.02777 17.3847 5.6555 22.3767 6.04123C22.5163 6.05488 22.6436 6.09989 22.7515 6.16946C22.6436 6.09987 22.5163 6.05483 22.3767 6.04118C17.3847 5.65545 13.8134 8.02772 11.5837 10.9979ZM13.4977 22.6086C13.9838 21.7142 14.0451 20.7387 13.7192 19.9538C14.0452 20.7387 13.9838 21.7142 13.4977 22.6087C13.398 22.7914 13.3849 23.005 13.4435 23.1958C13.3848 23.005 13.3979 22.7914 13.4977 22.6086ZM7.9385 13.4815C7.83864 13.4795 7.73829 13.481 7.63762 13.4859L7.63756 13.486C8.42681 13.4474 9.19632 13.621 9.86718 13.9874C10.104 13.4474 10.3605 12.9074 10.6762 12.3673L10.6761 12.3673C10.6399 12.4292 10.6045 12.4911 10.5698 12.553C10.3361 12.97 10.1351 13.3869 9.94839 13.8039C9.92102 13.865 9.89395 13.9262 9.86714 13.9874C9.80848 13.9553 9.74907 13.9248 9.68896 13.8957C9.14928 13.6346 8.55307 13.4935 7.9385 13.4815ZM8.16878 13.2916C8.72926 13.3304 9.27215 13.4728 9.77007 13.7127C9.94587 13.3205 10.1353 12.9262 10.3533 12.531C9.57599 12.484 8.82687 12.7823 8.16878 13.2916ZM15.7109 20.9543C15.6465 21.025 15.5796 21.0943 15.5103 21.1621L15.5103 21.1622C16.3587 20.3328 16.852 19.272 16.6547 18.1727L16.6547 18.1727C16.6673 18.2433 16.6772 18.3138 16.6842 18.384C16.7781 19.318 16.384 20.2148 15.7109 20.9543ZM15.6971 20.6657C16.2395 20.0127 16.5442 19.259 16.4921 18.4861C16.0972 18.6932 15.691 18.8889 15.2735 19.0655C15.5097 19.5602 15.653 20.1007 15.6971 20.6657ZM13.9317 17.7097C16.2995 16.8033 21.7453 14.0067 21.548 7.54562L21.548 7.54562C21.7453 14.0067 16.2995 16.8033 13.9318 17.7098L13.9317 17.7097ZM11.3841 14.9398C12.7792 11.4209 16.0936 7.72288 21.3522 7.74315C21.4319 13.8239 16.3679 16.5381 13.9795 17.4767L11.3841 14.9398ZM19.1848 9.89333C19.4581 10.162 19.617 10.5401 19.617 10.9208C19.617 11.3028 19.457 11.6822 19.1819 11.951C18.907 12.2197 18.5211 12.3744 18.1345 12.3744C17.7478 12.3744 17.3619 12.2197 17.087 11.951C16.812 11.6822 16.652 11.3028 16.652 10.9208C16.652 10.5387 16.812 10.1594 17.087 9.89053C17.3619 9.62184 17.7478 9.46712 18.1345 9.46712C18.5125 9.46712 18.9034 9.59717 19.1848 9.89333ZM16.852 10.9208C16.852 11.1052 16.8957 11.2897 16.9761 11.4569C16.8957 11.2896 16.852 11.1052 16.852 10.9208C16.852 10.8861 16.8535 10.8514 16.8565 10.8169C16.8535 10.8516 16.852 10.8863 16.852 10.9208ZM18.1345 9.66717C18.1241 9.66717 18.1137 9.66728 18.1034 9.66751C18.1137 9.66725 18.1241 9.66712 18.1345 9.66712C18.1447 9.66712 18.1549 9.66723 18.1651 9.66744L18.1345 9.66717ZM7.93348 18.0376C8.6438 17.324 9.88687 17.0154 10.8734 17.999L10.8735 17.9991C9.88691 17.0155 8.64385 17.324 7.93353 18.0376C7.02589 18.9248 6.98643 20.6993 6.98643 21.0464C6.98643 21.1507 7.00785 21.2503 7.04663 21.3412C7.00783 21.2502 6.98639 21.1506 6.98639 21.0464C6.98639 20.6992 7.02585 18.9248 7.93348 18.0376ZM11.0139 17.8567C10.4798 17.3246 9.86525 17.1342 9.28332 17.1825C8.70771 17.2303 8.17685 17.51 7.79269 17.8955C7.29673 18.381 7.04967 19.0933 6.9237 19.7041C6.7965 20.3208 6.78639 20.8663 6.78639 21.0464C6.78639 21.5854 7.23541 22.0178 7.77563 22.0178H7.79537C8.00991 22.0178 8.56236 22.003 9.17744 21.8763C9.78725 21.7507 10.4888 21.5092 10.9738 21.0351C11.5701 20.4522 11.7048 19.8386 11.7048 19.4263C11.7048 18.8475 11.4629 18.2959 11.0139 17.8567ZM9.21775 19.847C9.39649 19.7858 9.52169 19.7157 9.58922 19.6497C9.62556 19.6142 9.66463 19.565 9.69611 19.5131C9.72136 19.4714 9.73664 19.4364 9.74416 19.4119C9.73765 19.3827 9.71185 19.3227 9.62868 19.2414C9.52847 19.1434 9.45766 19.1248 9.43305 19.1248C9.37788 19.1248 9.309 19.1522 9.17823 19.28C9.1224 19.3346 9.0559 19.4492 8.99209 19.6248C8.95814 19.7182 8.92721 19.8224 8.89992 19.9329C9.01337 19.9091 9.12078 19.8803 9.21775 19.847ZM8.85324 20.1459C8.78447 20.1586 8.7144 20.1695 8.64386 20.1785L8.64385 20.1785C9.09766 20.1206 9.53175 19.9856 9.72906 19.7928C9.82772 19.6963 9.92637 19.5421 9.9461 19.4263C9.9461 19.3899 9.93762 19.3507 9.92069 19.3097C9.9376 19.3506 9.94606 19.3898 9.94606 19.4263C9.92633 19.542 9.82767 19.6963 9.72902 19.7927C9.56239 19.9556 9.22688 20.0772 8.85324 20.1459Z" fill="#80B528"/>
</svg>
