<?xml version="1.0" encoding="utf-8"?>
<!-- Generator: Adobe Illustrator 22.1.0, SVG Export Plug-In . SVG Version: 6.00 Build 0)  -->
<!DOCTYPE svg PUBLIC "-//W3C//DTD SVG 1.1//EN" "http://www.w3.org/Graphics/SVG/1.1/DTD/svg11.dtd">
<svg version="1.1" id="Layer_1" xmlns="http://www.w3.org/2000/svg" xmlns:xlink="http://www.w3.org/1999/xlink" x="0px" y="0px"
	 width="150px" height="43px" viewBox="0 0 150 43" style="enable-background:new 0 0 150 43;" xml:space="preserve">
<style type="text/css">
	.st0{fill:#FFFFFF;}
</style>
<title>xl-logo-no-tagline-115x32</title>
<g>
	<path class="st0" d="M141.3,21.4c0.4,0.4,0.9,0.7,1.4,0.9c0.6,0.3,1.3,0.4,1.9,0.4c0.5,0,1-0.1,1.5-0.3c0.4-0.1,0.6-0.5,0.6-0.8
		c0-0.4-0.2-0.7-0.5-0.9c-0.3-0.2-0.6-0.3-0.9-0.4c-0.5-0.2-1-0.3-1.6-0.4c-0.4-0.1-0.8-0.2-1.3-0.4c-0.4-0.2-0.9-0.4-1.2-0.7
		c-0.4-0.3-0.7-0.6-0.9-1.1c-0.3-0.4-0.4-1-0.4-1.5c0-0.6,0.1-1.1,0.4-1.6c0.3-0.5,0.7-0.9,1.1-1.2c0.5-0.3,1-0.6,1.6-0.7
		c0.6-0.2,1.2-0.3,1.7-0.3c0.9,0,1.8,0.1,2.7,0.3c0.7,0.2,1.4,0.5,2,1l-1.5,2.1c-0.4-0.3-0.8-0.5-1.3-0.6c-0.6-0.2-1.2-0.3-1.8-0.3
		c-0.5,0-1,0.1-1.5,0.3c-0.3,0.2-0.4,0.5-0.4,0.8c0,0.4,0.2,0.7,0.7,0.9c0.7,0.3,1.4,0.5,2.2,0.7c0.6,0.1,1.1,0.3,1.6,0.5
		c0.4,0.2,0.9,0.4,1.2,0.8c0.3,0.3,0.6,0.7,0.8,1.1c0.2,0.5,0.3,1,0.3,1.5c0,0.5-0.1,1.1-0.4,1.5c-0.3,0.5-0.6,0.9-1.1,1.2
		c-0.5,0.3-1,0.6-1.6,0.7c-0.6,0.2-1.3,0.3-2,0.3c-1,0-2-0.1-3-0.5c-0.8-0.3-1.6-0.7-2.1-1.4L141.3,21.4z"/>
	<path class="st0" d="M47.2,16.1L41.9,8h3.8l3.5,5.5L52.6,8H56l-5.2,8l5.8,8.8h-3.8l-3.9-6.1l-3.8,6.1h-3.4L47.2,16.1z"/>
	<path class="st0" d="M67.8,23c0,0.1-0.2,0.2-0.4,0.4c-0.3,0.3-0.6,0.5-1,0.7c-0.5,0.3-1.1,0.5-1.6,0.7c-0.8,0.2-1.6,0.3-2.4,0.3
		c-0.9,0-1.8-0.2-2.6-0.5c-1.5-0.6-2.7-1.8-3.2-3.3c-0.3-0.8-0.5-1.7-0.4-2.6c0-0.8,0.1-1.7,0.4-2.4c0.3-0.7,0.7-1.4,1.2-2
		c0.5-0.6,1.2-1,1.9-1.3c0.8-0.3,1.6-0.5,2.4-0.5c0.9,0,1.9,0.2,2.7,0.6c0.7,0.4,1.3,0.9,1.8,1.5c0.5,0.7,0.8,1.4,1,2.2
		c0.2,0.8,0.3,1.6,0.3,2.5v0.4h-8.8c0,0.4,0.1,0.8,0.3,1.2c0.2,0.3,0.4,0.7,0.8,0.9c0.3,0.3,0.7,0.5,1.1,0.6
		c0.4,0.1,0.8,0.2,1.2,0.2c0.9,0,1.8-0.2,2.6-0.5c0.3-0.1,0.5-0.3,0.7-0.5c0.2-0.2,0.3-0.3,0.4-0.4L67.8,23z M64.9,17.6
		c0-0.3-0.1-0.6-0.2-0.9c-0.1-0.3-0.3-0.6-0.5-0.8c-0.2-0.3-0.5-0.5-0.9-0.6c-0.4-0.2-0.8-0.2-1.2-0.2c-0.4,0-0.9,0.1-1.3,0.2
		c-0.3,0.1-0.7,0.3-0.9,0.6c-0.2,0.2-0.4,0.5-0.6,0.8c-0.1,0.3-0.2,0.6-0.2,0.9H64.9z"/>
	<path class="st0" d="M70,8h3v5.8c0.3-0.3,0.7-0.5,1.2-0.7c0.7-0.3,1.4-0.4,2.1-0.4c0.8,0,1.6,0.1,2.3,0.5c0.6,0.3,1.2,0.7,1.7,1.3
		c0.5,0.6,0.8,1.2,1.1,1.9c0.2,0.8,0.4,1.5,0.4,2.3c0,0.9-0.2,1.7-0.5,2.5c-0.3,0.8-0.8,1.5-1.3,2c-0.6,0.6-1.3,1.1-2.1,1.4
		c-0.9,0.4-1.8,0.5-2.8,0.5c-1,0-1.9-0.1-2.8-0.3c-0.7-0.1-1.4-0.3-2.1-0.5L70,8z M73,22.3c0.2,0.1,0.5,0.1,0.7,0.2
		c0.4,0.1,0.8,0.1,1.2,0.1c0.5,0,1.1-0.1,1.6-0.3c0.4-0.2,0.8-0.5,1.2-0.8c0.3-0.4,0.6-0.8,0.7-1.2c0.2-0.5,0.2-0.9,0.2-1.4
		c0-0.4-0.1-0.9-0.2-1.3c-0.1-0.4-0.3-0.8-0.5-1.1c-0.2-0.3-0.5-0.6-0.9-0.8c-0.4-0.2-0.8-0.3-1.3-0.3c-0.7-0.1-1.5,0.2-2.1,0.7
		c-0.5,0.5-0.7,1.2-0.7,1.9L73,22.3z"/>
	<path class="st0" d="M83.6,13h3v11.8h-3V13z"/>
	<path class="st0" d="M96.3,23.7c-0.4,0.4-0.9,0.8-1.5,1c-0.7,0.3-1.4,0.5-2.2,0.5c-0.5,0-1-0.1-1.4-0.2c-0.5-0.1-0.9-0.4-1.3-0.7
		c-0.4-0.3-0.7-0.7-1-1.2c-0.3-0.5-0.4-1.1-0.4-1.7c0-0.6,0.1-1.2,0.4-1.8c0.2-0.5,0.6-1,1.1-1.3c0.5-0.4,1-0.7,1.6-0.8
		c0.7-0.2,1.4-0.3,2.1-0.3c0.2,0,0.5,0,0.8,0c0.3,0,0.6,0,0.8,0c0.3,0,0.6,0,0.9,0.1v-0.3c0-0.6-0.2-1.1-0.7-1.4
		c-0.5-0.4-1.2-0.5-1.8-0.5c-0.7,0-1.4,0.1-2,0.3c-0.5,0.2-0.9,0.4-1.3,0.7l-1.4-2c0.2-0.2,0.5-0.3,0.8-0.5c0.3-0.2,0.7-0.4,1.1-0.5
		c0.5-0.2,0.9-0.3,1.4-0.4c0.6-0.1,1.2-0.1,1.9-0.1c0.7,0,1.4,0.1,2.1,0.3c0.6,0.2,1.1,0.5,1.6,0.9c0.4,0.4,0.8,0.8,1,1.4
		c0.2,0.5,0.4,1.1,0.4,1.7v7.9h-2.8L96.3,23.7z M96.3,19.4c-0.3,0-0.6,0-0.9-0.1c-0.2,0-0.5,0-0.7,0c-0.3,0-0.5,0-0.7,0
		c-0.7-0.1-1.4,0.1-2,0.6c-0.4,0.3-0.6,0.8-0.6,1.3c0,0.5,0.2,0.9,0.5,1.2c0.5,0.3,1,0.5,1.6,0.4c0.7,0,1.3-0.2,1.9-0.7
		c0.2-0.2,0.5-0.4,0.6-0.7c0.2-0.3,0.2-0.6,0.2-0.9L96.3,19.4z"/>
	<path class="st0" d="M101.5,8h3.2v14h8.3v2.8h-11.5L101.5,8z"/>
	<path class="st0" d="M121.6,23.7c-0.4,0.4-0.9,0.8-1.5,1c-0.7,0.3-1.4,0.5-2.2,0.5c-0.5,0-1-0.1-1.4-0.2c-0.5-0.1-0.9-0.4-1.3-0.7
		c-0.4-0.3-0.7-0.7-1-1.2c-0.3-0.5-0.4-1.1-0.4-1.7c0-0.6,0.1-1.2,0.4-1.8c0.2-0.5,0.6-1,1.1-1.3c0.5-0.4,1-0.7,1.6-0.8
		c0.7-0.2,1.4-0.3,2.1-0.3c0.2,0,0.5,0,0.8,0c0.3,0,0.6,0,0.8,0c0.3,0,0.6,0,0.9,0.1v-0.3c0-0.6-0.2-1.1-0.7-1.4
		c-0.5-0.4-1.2-0.5-1.8-0.5c-0.7,0-1.4,0.1-2,0.3c-0.5,0.2-0.9,0.4-1.3,0.7l-1.4-2c0.2-0.2,0.5-0.3,0.8-0.5c0.3-0.2,0.7-0.4,1.1-0.5
		c0.5-0.2,0.9-0.3,1.4-0.4c0.6-0.1,1.2-0.1,1.9-0.1c0.7,0,1.4,0.1,2.1,0.3c0.6,0.2,1.1,0.5,1.6,0.9c0.4,0.4,0.8,0.8,1,1.4
		c0.2,0.5,0.4,1.1,0.4,1.7v7.9h-2.8L121.6,23.7z M121.6,19.4c-0.3,0-0.6,0-0.9-0.1c-0.2,0-0.5,0-0.7,0c-0.3,0-0.5,0-0.7,0
		c-0.7-0.1-1.4,0.1-2,0.6c-0.4,0.3-0.6,0.8-0.6,1.3c0,0.5,0.2,0.9,0.5,1.2c0.5,0.3,1,0.5,1.6,0.4c0.7,0,1.3-0.2,1.9-0.7
		c0.2-0.2,0.5-0.4,0.6-0.7c0.2-0.3,0.2-0.6,0.2-0.9V19.4z"/>
	<path class="st0" d="M126.9,8h3v5.8c0.3-0.3,0.7-0.5,1.2-0.7c0.7-0.3,1.4-0.4,2.1-0.4c0.8,0,1.6,0.1,2.3,0.5
		c0.6,0.3,1.2,0.7,1.7,1.3c0.5,0.6,0.8,1.2,1.1,1.9c0.2,0.8,0.4,1.5,0.4,2.3c0,0.9-0.2,1.7-0.5,2.5c-0.3,0.8-0.8,1.5-1.3,2
		c-0.6,0.6-1.3,1.1-2.1,1.4c-0.9,0.4-1.8,0.5-2.8,0.5c-1,0-1.9-0.1-2.8-0.3c-0.7-0.1-1.4-0.3-2.1-0.5L126.9,8z M129.8,22.3
		c0.2,0.1,0.5,0.1,0.7,0.2c0.4,0.1,0.8,0.1,1.2,0.1c0.5,0,1.1-0.1,1.6-0.3c0.4-0.2,0.8-0.5,1.2-0.8c0.3-0.4,0.6-0.8,0.7-1.2
		c0.2-0.5,0.2-0.9,0.2-1.4c0-0.4-0.1-0.9-0.2-1.3c-0.1-0.4-0.3-0.8-0.5-1.1c-0.2-0.3-0.5-0.6-0.9-0.8c-0.4-0.2-0.8-0.3-1.3-0.3
		c-0.7-0.1-1.5,0.2-2.1,0.7c-0.5,0.5-0.7,1.2-0.7,1.9L129.8,22.3z"/>
	<rect x="83.5" y="8" class="st0" width="3.2" height="3.1"/>
	<path class="st0" d="M29.9,23.3L28,20.6c-0.1-0.2-0.4-0.3-0.6-0.3h-2.9v-9c0-0.4-0.4-0.8-0.8-0.8l0,0h-2.6V22l-3.9-5.5l3.9-5.9
		h-3.3c-0.3,0-0.5,0.1-0.7,0.4L9.1,23.3h3.3c0.3,0,0.5-0.1,0.7-0.4l2.2-3.3l2.6,3.7H22l0,0L29.9,23.3z"/>
	<polygon class="st0" points="13.1,10.5 8.9,10.5 12.9,16.3 14.9,13.2 	"/>
	<path class="st0" d="M35.5,6.4c0-3.1-2.5-5.5-5.5-5.5l-19.9,0l2.7,2.7H30c1.6,0,2.9,1.3,2.9,2.9v23.1H8.8c-1.6,0-2.9-1.3-2.9-2.9V5
		l0.9,0.9c0.2,0.2,0.6,0.2,0.8,0l1.1-1.1c0.2-0.2,0.2-0.6,0-0.8c0,0,0,0,0,0L5.1,0.4C4.8,0.1,4.3,0.1,4,0.4c0,0,0,0,0,0L0.4,4
		c-0.2,0.2-0.2,0.6,0,0.8l1.1,1.1c0.2,0.2,0.6,0.2,0.8,0l0.9-0.9v21.6c0,3.1,2.5,5.5,5.5,5.5h26.7V6.4z"/>
</g>
</svg>
